<svg width="68" height="46" viewBox="0 0 68 46" fill="none" xmlns="http://www.w3.org/2000/svg">
<path d="M7.55556 0.5C3.38819 0.5 0 3.86328 0 8V15.5C0 16.5312 0.873611 17.3398 1.85347 17.6797C4.07292 18.4414 5.66667 20.5391 5.66667 23C5.66667 25.4609 4.07292 27.5586 1.85347 28.3203C0.873611 28.6602 0 29.4688 0 30.5V38C0 42.1367 3.38819 45.5 7.55556 45.5H60.4444C64.6118 45.5 68 42.1367 68 38V30.5C68 29.4688 67.1264 28.6602 66.1465 28.3203C63.9271 27.5586 62.3333 25.4609 62.3333 23C62.3333 20.5391 63.9271 18.4414 66.1465 17.6797C67.1264 17.3398 68 16.5312 68 15.5V8C68 3.86328 64.6118 0.5 60.4444 0.5H7.55556ZM15.1111 13.625V32.375C15.1111 33.4062 15.9611 34.25 17 34.25H51C52.0389 34.25 52.8889 33.4062 52.8889 32.375V13.625C52.8889 12.5938 52.0389 11.75 51 11.75H17C15.9611 11.75 15.1111 12.5938 15.1111 13.625ZM11.3333 11.75C11.3333 9.67578 13.0215 8 15.1111 8H52.8889C54.9785 8 56.6667 9.67578 56.6667 11.75V34.25C56.6667 36.3242 54.9785 38 52.8889 38H15.1111C13.0215 38 11.3333 36.3242 11.3333 34.25V11.75Z" fill="#6366F1"/>
</svg>
